<svg xmlns="http://www.w3.org/2000/svg" width="256" height="320" viewBox="0 0 256 320"><rect width="100%" height="100%" fill="#DDDDDD"/><path fill="#999999" d="M76.72 169.825h25.53l-9.77-26.7q-.72-1.77-1.5-4.22-.78-2.44-1.55-5.27-.72 2.83-1.5 5.3-.78 2.47-1.5 4.3l-9.71 26.59Zm20.37-49.95 31.52 80.25h-11.54q-1.95 0-3.17-.97t-1.83-2.42l-5.99-16.37H72.83l-5.99 16.37q-.45 1.28-1.72 2.34-1.28 1.05-3.17 1.05H50.3l31.58-80.25h15.21Zm96.57 0h12.04l-32.41 80.25H159.8l-32.41-80.25h11.99q1.94 0 3.16.94 1.22.94 1.83 2.44l18.93 48.95q.94 2.39 1.8 5.25.86 2.86 1.64 5.96.67-3.1 1.44-5.96.78-2.86 1.72-5.25l18.82-48.95q.44-1.27 1.75-2.33 1.3-1.05 3.19-1.05Z"/></svg>